<svg width="341" height="62" viewBox="0 0 341 62" fill="white" xmlns="http://www.w3.org/2000/svg">
<path d="M0 46.15V0H19.89C22.1433 0 24.2233 0.455001 26.13 1.365C28.0367 2.275 29.6833 3.51 31.07 5.07C32.4567 6.58667 33.5183 8.29834 34.255 10.205C35.035 12.1117 35.425 14.04 35.425 15.99C35.425 18.72 34.775 21.2983 33.475 23.725C32.2183 26.1517 30.4417 28.145 28.145 29.705C25.8917 31.2217 23.2483 31.98 20.215 31.98H12.675V46.15H0ZM12.675 20.93H19.37C19.89 20.93 20.3883 20.7783 20.865 20.475C21.3417 20.1717 21.7317 19.6517 22.035 18.915C22.3817 18.1783 22.555 17.2033 22.555 15.99C22.555 14.69 22.36 13.6933 21.97 13C21.6233 12.2633 21.1683 11.765 20.605 11.505C20.085 11.2017 19.565 11.05 19.045 11.05H12.675V20.93Z" fill="black"/>
<path d="M55.7263 46.8C52.7363 46.8 50.0713 46.345 47.7313 45.435C45.3913 44.4817 43.4197 43.2033 41.8163 41.6C40.2563 39.9967 39.0647 38.155 38.2413 36.075C37.418 33.995 37.0063 31.8067 37.0063 29.51C37.0063 26.2167 37.7213 23.205 39.1513 20.475C40.5813 17.7017 42.683 15.4917 45.4563 13.845C48.2297 12.155 51.653 11.31 55.7263 11.31C59.7997 11.31 63.223 12.1333 65.9963 13.78C68.7697 15.4267 70.8713 17.5933 72.3013 20.28C73.7313 22.9667 74.4463 25.8917 74.4463 29.055C74.4463 29.705 74.403 30.3767 74.3163 31.07C74.273 31.72 74.208 32.305 74.1213 32.825H50.1363C50.223 34.0383 50.548 35.035 51.1113 35.815C51.718 36.5517 52.4547 37.0933 53.3213 37.44C54.2313 37.7867 55.163 37.96 56.1163 37.96C57.4597 37.96 58.7163 37.6567 59.8863 37.05C61.0997 36.4433 61.9013 35.5983 62.2913 34.515L72.7563 37.505C71.8463 39.325 70.568 40.9283 68.9213 42.315C67.318 43.7017 65.4113 44.8067 63.2013 45.63C60.9913 46.41 58.4997 46.8 55.7263 46.8ZM49.8763 25.415H61.1863C61.0563 24.2883 60.7313 23.335 60.2113 22.555C59.7347 21.775 59.0847 21.1683 58.2613 20.735C57.4813 20.3017 56.5713 20.085 55.5313 20.085C54.4913 20.085 53.5597 20.3017 52.7363 20.735C51.9563 21.1683 51.3063 21.775 50.7863 22.555C50.3097 23.335 50.0063 24.2883 49.8763 25.415Z" fill="black"/>
<path d="M101.706 22.49C99.3224 22.49 97.1557 22.75 95.2057 23.27C93.2557 23.79 91.804 24.6567 90.8507 25.87V46.15H78.5007V11.96H89.8107V18.46C91.024 16.1633 92.5407 14.4083 94.3607 13.195C96.1807 11.9383 98.109 11.31 100.146 11.31C100.622 11.31 100.947 11.31 101.121 11.31C101.337 11.31 101.532 11.3317 101.706 11.375V22.49Z" fill="black"/>
<path d="M119.257 46.8C116.267 46.8 113.32 46.3233 110.417 45.37C107.557 44.3733 105.13 42.9433 103.137 41.08L107.362 33.475C109.485 34.8617 111.522 35.945 113.472 36.725C115.465 37.505 117.263 37.895 118.867 37.895C119.777 37.895 120.448 37.7867 120.882 37.57C121.315 37.31 121.532 36.8983 121.532 36.335C121.532 35.945 121.38 35.62 121.077 35.36C120.773 35.1 120.275 34.84 119.582 34.58C118.932 34.32 118.087 34.0383 117.047 33.735C114.36 32.7817 112.107 31.8933 110.287 31.07C108.51 30.2467 107.167 29.25 106.257 28.08C105.39 26.8667 104.957 25.2633 104.957 23.27C104.957 20.93 105.542 18.8717 106.712 17.095C107.882 15.275 109.55 13.845 111.717 12.805C113.927 11.765 116.57 11.245 119.647 11.245C121.943 11.245 124.24 11.6133 126.537 12.35C128.877 13.0433 131.13 14.3217 133.297 16.185L128.617 23.725C126.45 22.3817 124.608 21.4283 123.092 20.865C121.618 20.3017 120.297 20.02 119.127 20.02C118.563 20.02 118.065 20.085 117.632 20.215C117.242 20.345 116.938 20.54 116.722 20.8C116.505 21.06 116.397 21.4067 116.397 21.84C116.397 22.2733 116.548 22.6417 116.852 22.945C117.155 23.205 117.632 23.465 118.282 23.725C118.932 23.9417 119.755 24.2017 120.752 24.505C123.698 25.3717 126.103 26.26 127.967 27.17C129.83 28.0367 131.195 29.0983 132.062 30.355C132.972 31.6117 133.427 33.2583 133.427 35.295C133.427 38.8917 132.148 41.7083 129.592 43.745C127.078 45.7817 123.633 46.8 119.257 46.8Z" fill="black"/>
<path d="M154.94 46.8C151.907 46.8 149.22 46.3233 146.88 45.37C144.54 44.4167 142.569 43.1167 140.965 41.47C139.405 39.78 138.214 37.8733 137.39 35.75C136.61 33.6267 136.22 31.395 136.22 29.055C136.22 26.715 136.61 24.4833 137.39 22.36C138.214 20.1933 139.405 18.2867 140.965 16.64C142.569 14.9933 144.54 13.6933 146.88 12.74C149.22 11.7867 151.907 11.31 154.94 11.31C158.017 11.31 160.704 11.7867 163 12.74C165.34 13.6933 167.29 14.9933 168.85 16.64C170.454 18.2867 171.645 20.1933 172.425 22.36C173.249 24.4833 173.66 26.715 173.66 29.055C173.66 31.395 173.249 33.6267 172.425 35.75C171.645 37.8733 170.454 39.78 168.85 41.47C167.29 43.1167 165.34 44.4167 163 45.37C160.704 46.3233 158.017 46.8 154.94 46.8ZM148.895 29.055C148.895 30.5717 149.155 31.8933 149.675 33.02C150.195 34.1033 150.91 34.9483 151.82 35.555C152.73 36.1183 153.77 36.4 154.94 36.4C156.11 36.4 157.15 36.1183 158.06 35.555C158.97 34.9483 159.685 34.1033 160.205 33.02C160.725 31.8933 160.985 30.5717 160.985 29.055C160.985 27.5383 160.725 26.2383 160.205 25.155C159.685 24.0283 158.97 23.1833 158.06 22.62C157.15 22.0133 156.11 21.71 154.94 21.71C153.77 21.71 152.73 22.0133 151.82 22.62C150.91 23.1833 150.195 24.0283 149.675 25.155C149.155 26.2383 148.895 27.5383 148.895 29.055Z" fill="black"/>
<path d="M212.417 46.15H200.067V26.91C200.067 25.22 199.677 24.0067 198.897 23.27C198.16 22.49 197.294 22.1 196.297 22.1C195.604 22.1 194.867 22.3167 194.087 22.75C193.307 23.14 192.592 23.7033 191.942 24.44C191.292 25.1767 190.772 26.0217 190.382 26.975V46.15H178.032V11.96H189.147V17.03C189.97 15.7733 191.01 14.7333 192.267 13.91C193.524 13.0433 194.975 12.3933 196.622 11.96C198.269 11.5267 200.067 11.31 202.017 11.31C204.357 11.31 206.22 11.7217 207.607 12.545C208.994 13.3683 210.034 14.43 210.727 15.73C211.42 17.03 211.875 18.395 212.092 19.825C212.309 21.2117 212.417 22.49 212.417 23.66V46.15Z" fill="black"/>
<path d="M216.518 35.815C216.518 33.5183 217.146 31.5033 218.403 29.77C219.66 27.9933 221.393 26.6067 223.603 25.61C225.856 24.6133 228.413 24.115 231.273 24.115C232.616 24.115 233.873 24.2233 235.043 24.44C236.256 24.6567 237.296 24.9817 238.163 25.415V24.375C238.163 22.7717 237.686 21.58 236.733 20.8C235.823 20.02 234.328 19.63 232.248 19.63C230.341 19.63 228.543 19.955 226.853 20.605C225.206 21.2117 223.473 22.1217 221.653 23.335L218.078 15.665C220.375 14.1917 222.78 13.1083 225.293 12.415C227.85 11.6783 230.58 11.31 233.483 11.31C238.9 11.31 243.081 12.545 246.028 15.015C249.018 17.4417 250.513 21.06 250.513 25.87V32.5C250.513 33.67 250.686 34.4933 251.033 34.97C251.38 35.4033 251.986 35.6633 252.853 35.75V46.15C251.856 46.3667 250.903 46.5183 249.993 46.605C249.126 46.735 248.346 46.8 247.653 46.8C245.443 46.8 243.753 46.41 242.583 45.63C241.456 44.8067 240.72 43.615 240.373 42.055L240.113 40.82C238.596 42.77 236.841 44.265 234.848 45.305C232.855 46.3017 230.731 46.8 228.478 46.8C226.225 46.8 224.188 46.3233 222.368 45.37C220.548 44.4167 219.118 43.1167 218.078 41.47C217.038 39.78 216.518 37.895 216.518 35.815ZM236.538 36.66C237.015 36.3133 237.405 35.945 237.708 35.555C238.011 35.1217 238.163 34.6883 238.163 34.255V31.72C237.47 31.46 236.668 31.2433 235.758 31.07C234.891 30.8967 234.111 30.81 233.418 30.81C231.945 30.81 230.688 31.1783 229.648 31.915C228.651 32.6517 228.153 33.5833 228.153 34.71C228.153 35.3167 228.326 35.88 228.673 36.4C229.02 36.8767 229.496 37.2667 230.103 37.57C230.71 37.83 231.403 37.96 232.183 37.96C232.92 37.96 233.678 37.8517 234.458 37.635C235.281 37.375 235.975 37.05 236.538 36.66Z" fill="black"/>
<path d="M258.159 46.15V0H289.814V11.05H270.834V18.72H286.304V28.99H270.834V46.15H258.159Z" fill="black"/>
<path d="M293.68 49.595C294.677 49.9417 295.587 50.2017 296.41 50.375C297.277 50.5917 298.057 50.7 298.75 50.7C299.66 50.7 300.418 50.5267 301.025 50.18C301.632 49.8767 302.108 49.3783 302.455 48.685C302.802 47.9917 303.018 47.1467 303.105 46.15L290.69 11.96H303.365L309.865 33.475L315.13 11.96H326.635L315.065 50.245C314.415 52.455 313.353 54.3833 311.88 56.03C310.407 57.72 308.652 59.02 306.615 59.93C304.578 60.8833 302.39 61.36 300.05 61.36C298.967 61.36 297.884 61.2517 296.8 61.035C295.76 60.8617 294.72 60.5583 293.68 60.125V49.595Z" fill="black"/>
<path d="M330.125 46.15V34.19H340.135V46.15H330.125Z" fill="#9776FF"/>
</svg>
