<svg width="47" height="47" viewBox="0 0 47 47" fill="none" xmlns="http://www.w3.org/2000/svg">
<path d="M0 46.15V0H19.89C22.1433 0 24.2233 0.455001 26.13 1.365C28.0367 2.275 29.6833 3.51 31.07 5.07C32.4567 6.58667 33.5183 8.29834 34.255 10.205C35.035 12.1117 35.425 14.04 35.425 15.99C35.425 18.72 34.775 21.2983 33.475 23.725C32.2183 26.1517 30.4417 28.145 28.145 29.705C25.8917 31.2217 23.2483 31.98 20.215 31.98H12.675V46.15H0ZM12.675 20.93H19.37C19.89 20.93 20.3883 20.7783 20.865 20.475C21.3417 20.1717 21.7317 19.6517 22.035 18.915C22.3817 18.1783 22.555 17.2033 22.555 15.99C22.555 14.69 22.36 13.6933 21.97 13C21.6233 12.2633 21.1683 11.765 20.605 11.505C20.085 11.2017 19.565 11.05 19.045 11.05H12.675V20.93Z" fill="white"/>
<path d="M36.0252 46.15V34.19H46.0352V46.15H36.0252Z" fill="#9776FF"/>
</svg>
