<svg width="50" height="49" viewBox="0 0 50 49" fill="none" xmlns="http://www.w3.org/2000/svg">
<path d="M20.839 24.5628C20.839 22.3057 22.705 20.4755 25.0075 20.4755C27.31 20.4755 29.177 22.3057 29.177 24.5628C29.177 26.8199 27.31 28.6501 25.0075 28.6501C22.705 28.6501 20.839 26.8199 20.839 24.5628ZM18.585 24.5628C18.585 28.04 21.4604 30.8586 25.0075 30.8586C28.5546 30.8586 31.43 28.04 31.43 24.5628C31.43 21.0856 28.5546 18.267 25.0075 18.267C21.4604 18.267 18.585 21.0856 18.585 24.5628ZM30.1833 18.0173C30.1832 18.3083 30.2711 18.5928 30.4359 18.8348C30.6007 19.0769 30.8351 19.2655 31.1093 19.377C31.3835 19.4885 31.6853 19.5177 31.9764 19.4611C32.2676 19.4044 32.5351 19.2644 32.7451 19.0587C32.9551 18.853 33.0981 18.5909 33.1561 18.3055C33.2142 18.0201 33.1846 17.7243 33.0711 17.4554C32.9576 17.1865 32.7653 16.9567 32.5186 16.7949C32.2718 16.6331 31.9817 16.5467 31.6848 16.5466H31.6842C31.2863 16.5468 30.9047 16.7018 30.6233 16.9775C30.3419 17.2533 30.1836 17.6273 30.1833 18.0173ZM19.9545 34.5428C18.735 34.4884 18.0722 34.2893 17.6318 34.1211C17.0478 33.8982 16.6312 33.6328 16.1931 33.204C15.7551 32.7751 15.4839 32.3671 15.2576 31.7946C15.0859 31.3631 14.8827 30.7131 14.8273 29.5177C14.7667 28.2253 14.7546 27.8371 14.7546 24.5629C14.7546 21.2886 14.7677 20.9015 14.8273 19.608C14.8828 18.4126 15.0875 17.764 15.2576 17.3311C15.4849 16.7587 15.7557 16.3502 16.1931 15.9208C16.6306 15.4914 17.0468 15.2256 17.6318 15.0037C18.072 14.8354 18.735 14.6363 19.9545 14.5819C21.2729 14.5225 21.6689 14.5106 25.0075 14.5106C28.3461 14.5106 28.7425 14.5235 30.062 14.5819C31.2815 14.6364 31.9432 14.8369 32.3847 15.0037C32.9687 15.2256 33.3853 15.492 33.8234 15.9208C34.2614 16.3496 34.5316 16.7587 34.7589 17.3311C34.9307 17.7627 35.1338 18.4126 35.1892 19.608C35.2498 20.9015 35.2619 21.2886 35.2619 24.5629C35.2619 27.8371 35.2498 28.2243 35.1892 29.5177C35.1337 30.7131 34.9296 31.3629 34.7589 31.7946C34.5316 32.3671 34.2608 32.7755 33.8234 33.204C33.3859 33.6324 32.9687 33.8982 32.3847 34.1211C31.9445 34.2894 31.2815 34.4885 30.062 34.5428C28.7436 34.6023 28.3476 34.6141 25.0075 34.6141C21.6674 34.6141 21.2725 34.6023 19.9545 34.5428ZM19.8509 12.3761C18.5194 12.4356 17.6096 12.6425 16.815 12.9456C15.9921 13.2586 15.2955 13.6785 14.5994 14.3598C13.9032 15.0412 13.476 15.7251 13.1567 16.5318C12.8475 17.3112 12.6364 18.2026 12.5757 19.5079C12.5141 20.8152 12.5 21.2331 12.5 24.5628C12.5 27.8924 12.5141 28.3104 12.5757 29.6177C12.6364 30.923 12.8475 31.8144 13.1567 32.5938C13.476 33.3999 13.9033 34.0847 14.5994 34.7657C15.2954 35.4467 15.9921 35.866 16.815 36.1799C17.6111 36.483 18.5194 36.69 19.8509 36.7494C21.1852 36.8088 21.6109 36.8237 25.0075 36.8237C28.4041 36.8237 28.8305 36.8098 30.1641 36.7494C31.4957 36.69 32.4049 36.483 33.2 36.1799C34.0224 35.866 34.7195 35.447 35.4156 34.7657C36.1118 34.0844 36.5381 33.3999 36.8583 32.5938C37.1675 31.8144 37.3796 30.9229 37.4393 29.6177C37.4999 28.3094 37.514 27.8924 37.514 24.5628C37.514 21.2331 37.4999 20.8152 37.4393 19.5079C37.3786 18.2025 37.1675 17.3107 36.8583 16.5318C36.5381 15.7256 36.1107 15.0422 35.4156 14.3598C34.7206 13.6775 34.0224 13.2586 33.201 12.9456C32.4049 12.6425 31.4956 12.4346 30.1651 12.3761C28.8315 12.3167 28.4051 12.3019 25.0085 12.3019C21.6119 12.3019 21.1852 12.3157 19.8509 12.3761Z" fill="white"/>
<path d="M20.839 24.5628C20.839 22.3057 22.705 20.4755 25.0075 20.4755C27.31 20.4755 29.177 22.3057 29.177 24.5628C29.177 26.8199 27.31 28.6501 25.0075 28.6501C22.705 28.6501 20.839 26.8199 20.839 24.5628ZM18.585 24.5628C18.585 28.04 21.4604 30.8586 25.0075 30.8586C28.5546 30.8586 31.43 28.04 31.43 24.5628C31.43 21.0856 28.5546 18.267 25.0075 18.267C21.4604 18.267 18.585 21.0856 18.585 24.5628ZM30.1833 18.0173C30.1832 18.3083 30.2711 18.5928 30.4359 18.8348C30.6007 19.0769 30.8351 19.2655 31.1093 19.377C31.3835 19.4885 31.6853 19.5177 31.9764 19.4611C32.2676 19.4044 32.5351 19.2644 32.7451 19.0587C32.9551 18.853 33.0981 18.5909 33.1561 18.3055C33.2142 18.0201 33.1846 17.7243 33.0711 17.4554C32.9576 17.1865 32.7653 16.9567 32.5186 16.7949C32.2718 16.6331 31.9817 16.5467 31.6848 16.5466H31.6842C31.2863 16.5468 30.9047 16.7018 30.6233 16.9775C30.3419 17.2533 30.1836 17.6273 30.1833 18.0173ZM19.9545 34.5428C18.735 34.4884 18.0722 34.2893 17.6318 34.1211C17.0478 33.8982 16.6312 33.6328 16.1931 33.204C15.7551 32.7751 15.4839 32.3671 15.2576 31.7946C15.0859 31.3631 14.8827 30.7131 14.8273 29.5177C14.7667 28.2253 14.7546 27.8371 14.7546 24.5629C14.7546 21.2886 14.7677 20.9015 14.8273 19.608C14.8828 18.4126 15.0875 17.764 15.2576 17.3311C15.4849 16.7587 15.7557 16.3502 16.1931 15.9208C16.6306 15.4914 17.0468 15.2256 17.6318 15.0037C18.072 14.8354 18.735 14.6363 19.9545 14.5819C21.2729 14.5225 21.6689 14.5106 25.0075 14.5106C28.3461 14.5106 28.7425 14.5235 30.062 14.5819C31.2815 14.6364 31.9432 14.8369 32.3847 15.0037C32.9687 15.2256 33.3853 15.492 33.8234 15.9208C34.2614 16.3496 34.5316 16.7587 34.7589 17.3311C34.9307 17.7627 35.1338 18.4126 35.1892 19.608C35.2498 20.9015 35.2619 21.2886 35.2619 24.5629C35.2619 27.8371 35.2498 28.2243 35.1892 29.5177C35.1337 30.7131 34.9296 31.3629 34.7589 31.7946C34.5316 32.3671 34.2608 32.7755 33.8234 33.204C33.3859 33.6324 32.9687 33.8982 32.3847 34.1211C31.9445 34.2894 31.2815 34.4885 30.062 34.5428C28.7436 34.6023 28.3476 34.6141 25.0075 34.6141C21.6674 34.6141 21.2725 34.6023 19.9545 34.5428ZM19.8509 12.3761C18.5194 12.4356 17.6096 12.6425 16.815 12.9456C15.9921 13.2586 15.2955 13.6785 14.5994 14.3598C13.9032 15.0412 13.476 15.7251 13.1567 16.5318C12.8475 17.3112 12.6364 18.2026 12.5757 19.5079C12.5141 20.8152 12.5 21.2331 12.5 24.5628C12.5 27.8924 12.5141 28.3104 12.5757 29.6177C12.6364 30.923 12.8475 31.8144 13.1567 32.5938C13.476 33.3999 13.9033 34.0847 14.5994 34.7657C15.2954 35.4467 15.9921 35.866 16.815 36.1799C17.6111 36.483 18.5194 36.69 19.8509 36.7494C21.1852 36.8088 21.6109 36.8237 25.0075 36.8237C28.4041 36.8237 28.8305 36.8098 30.1641 36.7494C31.4957 36.69 32.4049 36.483 33.2 36.1799C34.0224 35.866 34.7195 35.447 35.4156 34.7657C36.1118 34.0844 36.5381 33.3999 36.8583 32.5938C37.1675 31.8144 37.3796 30.9229 37.4393 29.6177C37.4999 28.3094 37.514 27.8924 37.514 24.5628C37.514 21.2331 37.4999 20.8152 37.4393 19.5079C37.3786 18.2025 37.1675 17.3107 36.8583 16.5318C36.5381 15.7256 36.1107 15.0422 35.4156 14.3598C34.7206 13.6775 34.0224 13.2586 33.201 12.9456C32.4049 12.6425 31.4956 12.4346 30.1651 12.3761C28.8315 12.3167 28.4051 12.3019 25.0085 12.3019C21.6119 12.3019 21.1852 12.3157 19.8509 12.3761Z" fill="white"/>
</svg>
