<svg width="50" height="49" viewBox="0 0 50 49" fill="none" xmlns="http://www.w3.org/2000/svg">
<path d="M19.2488 34.4291V21.1928H14.7634V34.4291H19.2492H19.2488ZM17.007 19.3859C18.5708 19.3859 19.5444 18.3695 19.5444 17.0993C19.5151 15.8002 18.5708 14.8121 17.0368 14.8121C15.5016 14.8121 14.499 15.8002 14.499 17.0992C14.499 18.3694 15.4722 19.3858 16.9776 19.3858H17.0067L17.007 19.3859ZM21.7315 34.4291H26.2164V27.0381C26.2164 26.6431 26.2457 26.247 26.3642 25.9648C26.6883 25.1741 27.4263 24.3555 28.6657 24.3555C30.2882 24.3555 30.9377 25.5692 30.9377 27.3488V34.4291H35.4226V26.8398C35.4226 22.7743 33.2101 20.8825 30.2592 20.8825C27.8398 20.8825 26.7773 22.2088 26.1869 23.1122H26.2168V21.1932H21.7317C21.7902 22.435 21.7313 34.4296 21.7313 34.4296L21.7315 34.4291Z" fill="white"/>
</svg>
