<svg width="50" height="49" viewBox="0 0 50 49" fill="none" xmlns="http://www.w3.org/2000/svg">
<path d="M37.4095 16.7424C36.5839 17.0909 35.716 17.3336 34.8271 17.4644C35.2427 17.3945 35.8541 16.6609 36.0975 16.3639C36.4673 15.916 36.7491 15.4046 36.9286 14.8558C36.9286 14.815 36.9702 14.7568 36.9286 14.7277C36.9077 14.7165 36.8842 14.7106 36.8603 14.7106C36.8365 14.7106 36.813 14.7165 36.7921 14.7277C35.8269 15.2403 34.7997 15.6316 33.7348 15.8923C33.6977 15.9034 33.6582 15.9044 33.6206 15.8951C33.5829 15.8859 33.5485 15.8668 33.5211 15.8398C33.4382 15.743 33.349 15.6516 33.254 15.5662C32.8196 15.1845 32.3268 14.872 31.7936 14.6403C31.0739 14.3507 30.2964 14.2253 29.52 14.2735C28.7666 14.3202 28.0311 14.5184 27.3591 14.8558C26.6974 15.2115 26.1159 15.6948 25.6495 16.2766C25.1588 16.8754 24.8046 17.5703 24.6106 18.3146C24.4506 19.0225 24.4325 19.7542 24.5572 20.469C24.5572 20.5913 24.5572 20.6088 24.4503 20.5913C20.2176 19.9799 16.7449 18.5067 13.9073 15.3449C13.7826 15.2052 13.7173 15.2052 13.6164 15.3449C12.3816 17.1849 12.9812 20.0963 14.5246 21.5346C14.7324 21.7267 14.9461 21.9131 15.1717 22.0878C14.464 22.0385 13.7737 21.8504 13.1415 21.5346C13.0227 21.4589 12.9574 21.4996 12.9515 21.6394C12.9347 21.8331 12.9347 22.0279 12.9515 22.2217C13.0754 23.1502 13.4484 24.0298 14.0325 24.7705C14.6166 25.5112 15.3908 26.0864 16.2759 26.4374C16.4916 26.5281 16.7165 26.5964 16.9467 26.6412C16.2916 26.7677 15.6197 26.7874 14.958 26.6994C14.8155 26.6703 14.7621 26.746 14.8155 26.88C15.6882 29.2091 17.5819 29.9195 18.971 30.3154C19.161 30.3445 19.3509 30.3445 19.5646 30.3911C19.5646 30.3911 19.5646 30.3911 19.529 30.4261C19.1194 31.1597 17.4632 31.6547 16.7033 31.9109C15.3164 32.3995 13.8376 32.5863 12.3697 32.4582C12.1382 32.4233 12.0848 32.4291 12.0254 32.4582C11.9661 32.4874 12.0254 32.5514 12.0907 32.6096C12.3875 32.8018 12.6844 32.9706 12.9931 33.1337C13.912 33.6253 14.8836 34.0159 15.89 34.2983C21.1022 35.7074 26.9673 34.6709 30.8794 30.857C33.9545 27.864 35.0349 23.7356 35.0349 19.6014C35.0349 19.4442 35.2308 19.351 35.3436 19.2695C36.1216 18.6749 36.8074 17.9727 37.3798 17.1849C37.4789 17.0675 37.5297 16.918 37.5222 16.7657C37.5222 16.6783 37.5222 16.6958 37.4095 16.7424Z" fill="white"/>
</svg>
