<svg width="41" height="41" viewBox="0 0 41 41" fill="none" xmlns="http://www.w3.org/2000/svg">
<path d="M7.32143 5.85714C6.93308 5.85714 6.56063 6.01142 6.28602 6.28602C6.01142 6.56063 5.85714 6.93308 5.85714 7.32143C5.85714 7.70978 6.01142 8.08223 6.28602 8.35683C6.56063 8.63144 6.93308 8.78571 7.32143 8.78571H33.6786C34.0669 8.78571 34.4394 8.63144 34.714 8.35683C34.9886 8.08223 35.1429 7.70978 35.1429 7.32143C35.1429 6.93308 34.9886 6.56063 34.714 6.28602C34.4394 6.01142 34.0669 5.85714 33.6786 5.85714H7.32143ZM10.25 23.4286C11.4151 23.4286 12.5324 22.9658 13.3562 22.1419C14.18 21.3181 14.6429 20.2008 14.6429 19.0357C14.6429 17.8707 14.18 16.7533 13.3562 15.9295C12.5324 15.1057 11.4151 14.6429 10.25 14.6429C9.08494 14.6429 7.9676 15.1057 7.14378 15.9295C6.31996 16.7533 5.85714 17.8707 5.85714 19.0357C5.85714 20.2008 6.31996 21.3181 7.14378 22.1419C7.9676 22.9658 9.08494 23.4286 10.25 23.4286ZM10.25 20.5C9.86165 20.5 9.4892 20.3457 9.21459 20.0711C8.93999 19.7965 8.78571 19.4241 8.78571 19.0357C8.78571 18.6474 8.93999 18.2749 9.21459 18.0003C9.4892 17.7257 9.86165 17.5714 10.25 17.5714C10.6384 17.5714 11.0108 17.7257 11.2854 18.0003C11.56 18.2749 11.7143 18.6474 11.7143 19.0357C11.7143 19.4241 11.56 19.7965 11.2854 20.0711C11.0108 20.3457 10.6384 20.5 10.25 20.5ZM14.6429 30.75C14.6429 31.9151 14.18 33.0324 13.3562 33.8562C12.5324 34.68 11.4151 35.1429 10.25 35.1429C9.08494 35.1429 7.9676 34.68 7.14378 33.8562C6.31996 33.0324 5.85714 31.9151 5.85714 30.75C5.85714 29.5849 6.31996 28.4676 7.14378 27.6438C7.9676 26.82 9.08494 26.3571 10.25 26.3571C11.4151 26.3571 12.5324 26.82 13.3562 27.6438C14.18 28.4676 14.6429 29.5849 14.6429 30.75ZM11.7143 30.75C11.7143 30.3616 11.56 29.9892 11.2854 29.7146C11.0108 29.44 10.6384 29.2857 10.25 29.2857C9.86165 29.2857 9.4892 29.44 9.21459 29.7146C8.93999 29.9892 8.78571 30.3616 8.78571 30.75C8.78571 31.1384 8.93999 31.5108 9.21459 31.7854C9.4892 32.06 9.86165 32.2143 10.25 32.2143C10.6384 32.2143 11.0108 32.06 11.2854 31.7854C11.56 31.5108 11.7143 31.1384 11.7143 30.75ZM8.78571 0C6.4556 0 4.22092 0.925635 2.57328 2.57328C0.925635 4.22092 0 6.4556 0 8.78571V32.2143C0 34.5444 0.925635 36.7791 2.57328 38.4267C4.22092 40.0744 6.4556 41 8.78571 41H32.2143C34.5444 41 36.7791 40.0744 38.4267 38.4267C40.0744 36.7791 41 34.5444 41 32.2143V8.78571C41 6.4556 40.0744 4.22092 38.4267 2.57328C36.7791 0.925635 34.5444 0 32.2143 0H8.78571ZM2.92857 8.78571C2.92857 7.2323 3.54566 5.74252 4.64409 4.64409C5.74252 3.54566 7.2323 2.92857 8.78571 2.92857H32.2143C33.7677 2.92857 35.2575 3.54566 36.3559 4.64409C37.4543 5.74252 38.0714 7.2323 38.0714 8.78571V32.2143C38.0714 33.7677 37.4543 35.2575 36.3559 36.3559C35.2575 37.4543 33.7677 38.0714 32.2143 38.0714H8.78571C7.2323 38.0714 5.74252 37.4543 4.64409 36.3559C3.54566 35.2575 2.92857 33.7677 2.92857 32.2143V8.78571Z" fill="white"/>
</svg>
